<svg xmlns="http://www.w3.org/2000/svg" xmlns:xlink="http://www.w3.org/1999/xlink" width="500" zoomAndPan="magnify" viewBox="0 0 375 374.999991" height="500" preserveAspectRatio="xMidYMid meet" version="1.0"><defs><g/></defs><g fill="#ffffff" fill-opacity="1"><g transform="translate(6.070317, 214.874986)"><g><path d="M 8.59375 -25.46875 L 0 -25.46875 L 0 -44.46875 C 0 -44.800781 0.207031 -44.96875 0.625 -44.96875 L 7.984375 -44.96875 C 8.390625 -44.96875 8.59375 -44.800781 8.59375 -44.46875 Z M 33.625 -44.96875 C 34.03125 -44.96875 34.234375 -44.800781 34.234375 -44.46875 L 34.234375 -0.5 C 34.234375 -0.164062 34.03125 0 33.625 0 L 26.25 0 C 25.84375 0 25.640625 -0.164062 25.640625 -0.5 L 25.640625 -8.4375 L 8.59375 -8.4375 L 8.59375 -0.5 C 8.59375 -0.164062 8.390625 0 7.984375 0 L 0.625 0 C 0.207031 0 0 -0.164062 0 -0.5 L 0 -16.859375 L 8.59375 -16.859375 L 8.59375 -16.8125 L 25.640625 -16.8125 L 25.640625 -44.46875 C 25.640625 -44.800781 25.84375 -44.96875 26.25 -44.96875 Z M 33.625 -44.96875 "/></g></g></g><g fill="#ffffff" fill-opacity="1"><g transform="translate(42.040353, 214.874986)"><g><path d="M 25.859375 -22.375 C 25.859375 -21.207031 25.453125 -20.210938 24.640625 -19.390625 C 23.835938 -18.566406 22.835938 -18.15625 21.640625 -18.15625 C 20.484375 -18.15625 19.488281 -18.566406 18.65625 -19.390625 C 17.832031 -20.210938 17.421875 -21.207031 17.421875 -22.375 C 17.421875 -23.570312 17.832031 -24.582031 18.65625 -25.40625 C 19.488281 -26.226562 20.484375 -26.640625 21.640625 -26.640625 C 22.835938 -26.640625 23.835938 -26.226562 24.640625 -25.40625 C 25.453125 -24.582031 25.859375 -23.570312 25.859375 -22.375 Z M 43.28125 -22.546875 C 43.28125 -19.734375 42.832031 -16.984375 41.9375 -14.296875 C 41.039062 -11.617188 39.691406 -9.203125 37.890625 -7.046875 C 36.085938 -4.898438 33.835938 -3.1875 31.140625 -1.90625 C 28.441406 -0.632812 25.296875 0 21.703125 0 C 18.066406 0 14.890625 -0.632812 12.171875 -1.90625 C 9.453125 -3.1875 7.191406 -4.898438 5.390625 -7.046875 C 3.597656 -9.203125 2.25 -11.617188 1.34375 -14.296875 C 0.445312 -16.984375 0 -19.734375 0 -22.546875 C 0 -25.359375 0.445312 -28.09375 1.34375 -30.75 C 2.25 -33.414062 3.597656 -35.816406 5.390625 -37.953125 C 7.191406 -40.085938 9.453125 -41.789062 12.171875 -43.0625 C 14.890625 -44.332031 18.066406 -44.96875 21.703125 -44.96875 C 25.296875 -44.96875 28.441406 -44.332031 31.140625 -43.0625 C 33.835938 -41.789062 36.085938 -40.085938 37.890625 -37.953125 C 39.691406 -35.816406 41.039062 -33.414062 41.9375 -30.75 C 42.832031 -28.09375 43.28125 -25.359375 43.28125 -22.546875 Z M 34.859375 -22.375 C 34.859375 -24.207031 34.578125 -25.992188 34.015625 -27.734375 C 33.453125 -29.484375 32.625 -31.0625 31.53125 -32.46875 C 30.445312 -33.875 29.082031 -34.988281 27.4375 -35.8125 C 25.789062 -36.632812 23.878906 -37.046875 21.703125 -37.046875 C 19.492188 -37.046875 17.5625 -36.632812 15.90625 -35.8125 C 14.257812 -34.988281 12.882812 -33.875 11.78125 -32.46875 C 10.675781 -31.0625 9.847656 -29.484375 9.296875 -27.734375 C 8.753906 -25.992188 8.484375 -24.207031 8.484375 -22.375 C 8.484375 -20.570312 8.753906 -18.804688 9.296875 -17.078125 C 9.847656 -15.359375 10.675781 -13.804688 11.78125 -12.421875 C 12.882812 -11.035156 14.257812 -9.929688 15.90625 -9.109375 C 17.5625 -8.285156 19.492188 -7.875 21.703125 -7.875 C 23.878906 -7.875 25.789062 -8.285156 27.4375 -9.109375 C 29.082031 -9.929688 30.445312 -11.035156 31.53125 -12.421875 C 32.625 -13.804688 33.453125 -15.359375 34.015625 -17.078125 C 34.578125 -18.804688 34.859375 -20.570312 34.859375 -22.375 Z M 34.859375 -22.375 "/></g></g></g><g fill="#ffffff" fill-opacity="1"><g transform="translate(87.452521, 214.874986)"><g><path d="M 33.171875 -44.96875 C 33.546875 -44.96875 33.734375 -44.800781 33.734375 -44.46875 L 33.734375 -15.015625 C 33.734375 -11.859375 32.992188 -9.15625 31.515625 -6.90625 C 30.035156 -4.664062 28.019531 -2.953125 25.46875 -1.765625 C 22.914062 -0.585938 20.046875 0 16.859375 0 C 13.785156 0 10.960938 -0.609375 8.390625 -1.828125 C 5.828125 -3.046875 3.785156 -4.78125 2.265625 -7.03125 C 0.753906 -9.28125 0 -11.941406 0 -15.015625 L 0 -36.828125 L 8.484375 -36.828125 L 8.484375 -15.0625 C 8.742188 -12.851562 9.691406 -11.164062 11.328125 -10 C 12.960938 -8.84375 14.804688 -8.265625 16.859375 -8.265625 C 18.285156 -8.265625 19.632812 -8.503906 20.90625 -8.984375 C 22.1875 -9.472656 23.226562 -10.222656 24.03125 -11.234375 C 24.84375 -12.253906 25.25 -13.515625 25.25 -15.015625 L 25.25 -44.46875 C 25.25 -44.800781 25.453125 -44.96875 25.859375 -44.96875 Z M 33.171875 -44.96875 "/></g></g></g><g fill="#ffffff" fill-opacity="1"><g transform="translate(122.860527, 214.874986)"><g><path d="M 20.625 -24.96875 C 22.988281 -23.875 24.796875 -22.285156 26.046875 -20.203125 C 27.304688 -18.128906 27.9375 -15.757812 27.9375 -13.09375 C 27.9375 -10.28125 27.269531 -7.898438 25.9375 -5.953125 C 24.613281 -4.003906 22.890625 -2.523438 20.765625 -1.515625 C 18.648438 -0.503906 16.394531 0 14 0 C 14 0 13.976562 0 13.9375 0 L 13.9375 -8.09375 C 13.976562 -8.09375 14 -8.09375 14 -8.09375 C 15.5 -8.09375 16.8125 -8.550781 17.9375 -9.46875 C 19.0625 -10.382812 19.625 -11.59375 19.625 -13.09375 C 19.625 -14.21875 19.332031 -15.171875 18.75 -15.953125 C 18.164062 -16.742188 17.441406 -17.363281 16.578125 -17.8125 C 15.722656 -18.269531 14.863281 -18.515625 14 -18.546875 C 13.8125 -18.546875 13.0625 -18.613281 11.75 -18.75 C 10.4375 -18.882812 8.957031 -19.320312 7.3125 -20.0625 C 4.988281 -21.15625 3.1875 -22.664062 1.90625 -24.59375 C 0.632812 -26.519531 0 -28.796875 0 -31.421875 C 0 -34.234375 0.660156 -36.648438 1.984375 -38.671875 C 3.316406 -40.703125 5.050781 -42.257812 7.1875 -43.34375 C 9.332031 -44.425781 11.601562 -44.96875 14 -44.96875 C 16.582031 -44.96875 18.90625 -44.429688 20.96875 -43.359375 C 23.03125 -42.296875 24.671875 -40.800781 25.890625 -38.875 C 27.109375 -36.945312 27.734375 -34.707031 27.765625 -32.15625 C 27.804688 -32.082031 27.757812 -31.988281 27.625 -31.875 C 27.5 -31.757812 27.34375 -31.703125 27.15625 -31.703125 L 20.125 -31.703125 C 19.976562 -31.703125 19.835938 -31.757812 19.703125 -31.875 C 19.578125 -31.988281 19.515625 -32.082031 19.515625 -32.15625 C 19.472656 -33.769531 18.90625 -34.957031 17.8125 -35.71875 C 16.726562 -36.488281 15.457031 -36.875 14 -36.875 C 12.457031 -36.875 11.132812 -36.414062 10.03125 -35.5 C 8.925781 -34.582031 8.375 -33.222656 8.375 -31.421875 C 8.375 -29.816406 8.953125 -28.59375 10.109375 -27.75 C 11.273438 -26.90625 12.570312 -26.484375 14 -26.484375 C 14.113281 -26.484375 14.488281 -26.460938 15.125 -26.421875 C 15.757812 -26.378906 16.570312 -26.253906 17.5625 -26.046875 C 18.5625 -25.847656 19.582031 -25.488281 20.625 -24.96875 Z M 20.625 -24.96875 "/></g></g></g><g fill="#ffffff" fill-opacity="1"><g transform="translate(152.198587, 214.874986)"><g><path d="M 21.359375 -8.375 L 21.359375 0 L 0.625 0 C 0.207031 0 0 -0.164062 0 -0.5 L 0 -44.46875 C 0 -44.800781 0.207031 -44.96875 0.625 -44.96875 L 21.359375 -44.96875 L 21.359375 -36.828125 L 8.59375 -36.828125 L 8.59375 -26.640625 L 26.25 -26.640625 C 26.664062 -26.640625 26.875 -26.472656 26.875 -26.140625 L 26.875 -19 C 26.875 -18.664062 26.664062 -18.5 26.25 -18.5 L 8.59375 -18.5 L 8.59375 -8.375 Z M 21.359375 -8.375 "/></g></g></g><g fill="#ffffff" fill-opacity="1"><g transform="translate(180.412586, 214.874986)"><g/></g></g><g fill="#ffffff" fill-opacity="1"><g transform="translate(194.463378, 214.874986)"><g><path d="M 35.3125 -0.671875 C 35.382812 -0.523438 35.363281 -0.375 35.25 -0.21875 C 35.132812 -0.0703125 34.984375 0 34.796875 0 L 27.046875 0 C 26.773438 0 26.601562 -0.113281 26.53125 -0.34375 L 17.65625 -25.40625 L 8.875 -0.34375 C 8.84375 -0.113281 8.660156 0 8.328125 0 L 0.625 0 C 0.351562 0 0.171875 -0.0703125 0.078125 -0.21875 C -0.015625 -0.375 -0.0195312 -0.523438 0.0625 -0.671875 L 17.09375 -44.640625 C 17.164062 -44.859375 17.351562 -44.96875 17.65625 -44.96875 C 17.957031 -44.96875 18.144531 -44.859375 18.21875 -44.640625 Z M 35.3125 -0.671875 "/></g></g></g><g fill="#ffffff" fill-opacity="1"><g transform="translate(231.557476, 214.874986)"><g><path d="M 30.703125 -0.734375 C 30.773438 -0.546875 30.765625 -0.375 30.671875 -0.21875 C 30.578125 -0.0703125 30.414062 0 30.1875 0 L 22.15625 0 C 21.851562 0 21.664062 -0.113281 21.59375 -0.34375 L 13.375 -18.15625 L 8.546875 -18.15625 L 8.546875 -0.5 C 8.546875 -0.164062 8.335938 0 7.921875 0 L 0.5625 0 C 0.1875 0 0 -0.164062 0 -0.5 L 0 -26.421875 L 15.125 -26.421875 C 15.570312 -26.421875 16.171875 -26.457031 16.921875 -26.53125 C 17.671875 -26.601562 18.410156 -26.804688 19.140625 -27.140625 C 19.867188 -27.484375 20.484375 -28 20.984375 -28.6875 C 21.492188 -29.382812 21.75 -30.351562 21.75 -31.59375 C 21.75 -32.832031 21.476562 -33.804688 20.9375 -34.515625 C 20.394531 -35.234375 19.726562 -35.75 18.9375 -36.0625 C 18.15625 -36.382812 17.40625 -36.59375 16.6875 -36.6875 C 15.976562 -36.78125 15.457031 -36.828125 15.125 -36.828125 L 0 -36.828125 L 0 -44.46875 C 0 -44.800781 0.1875 -44.96875 0.5625 -44.96875 L 15.125 -44.96875 C 15.644531 -44.96875 16.484375 -44.921875 17.640625 -44.828125 C 18.804688 -44.734375 20.109375 -44.476562 21.546875 -44.0625 C 22.992188 -43.65625 24.382812 -42.984375 25.71875 -42.046875 C 27.050781 -41.109375 28.144531 -39.796875 29 -38.109375 C 29.863281 -36.429688 30.296875 -34.257812 30.296875 -31.59375 C 30.296875 -29.3125 29.921875 -27.375 29.171875 -25.78125 C 28.421875 -24.1875 27.414062 -22.878906 26.15625 -21.859375 C 24.90625 -20.847656 23.53125 -20.066406 22.03125 -19.515625 C 23.457031 -16.328125 24.910156 -13.175781 26.390625 -10.0625 C 27.867188 -6.945312 29.304688 -3.835938 30.703125 -0.734375 Z M 30.703125 -0.734375 "/></g></g></g><g fill="#ffffff" fill-opacity="1"><g transform="translate(263.874307, 214.874986)"><g><path d="M 21.359375 -8.375 L 21.359375 0 L 0.625 0 C 0.207031 0 0 -0.164062 0 -0.5 L 0 -44.46875 C 0 -44.800781 0.207031 -44.96875 0.625 -44.96875 L 21.359375 -44.96875 L 21.359375 -36.828125 L 8.59375 -36.828125 L 8.59375 -26.640625 L 26.25 -26.640625 C 26.664062 -26.640625 26.875 -26.472656 26.875 -26.140625 L 26.875 -19 C 26.875 -18.664062 26.664062 -18.5 26.25 -18.5 L 8.59375 -18.5 L 8.59375 -8.375 Z M 21.359375 -8.375 "/></g></g></g><g fill="#ffffff" fill-opacity="1"><g transform="translate(292.088318, 214.874986)"><g><path d="M 37.21875 -44.96875 C 37.625 -44.96875 37.828125 -44.800781 37.828125 -44.46875 L 37.828125 -0.5 C 37.828125 -0.164062 37.625 0 37.21875 0 L 29.796875 0 C 29.753906 0 29.664062 -0.015625 29.53125 -0.046875 C 29.40625 -0.0859375 29.328125 -0.128906 29.296875 -0.171875 L 8.59375 -29.796875 L 8.59375 -10.796875 L 0 -10.796875 L 0 -44.46875 C 0 -44.800781 0.1875 -44.96875 0.5625 -44.96875 L 8.046875 -44.96875 C 8.117188 -44.96875 8.207031 -44.957031 8.3125 -44.9375 C 8.425781 -44.925781 8.503906 -44.882812 8.546875 -44.8125 L 29.296875 -15.171875 L 29.296875 -44.46875 C 29.296875 -44.800781 29.519531 -44.96875 29.96875 -44.96875 Z M 37.21875 -44.96875 "/></g></g></g><g fill="#ffffff" fill-opacity="1"><g transform="translate(331.823964, 214.874986)"><g><path d="M 35.3125 -0.671875 C 35.382812 -0.523438 35.363281 -0.375 35.25 -0.21875 C 35.132812 -0.0703125 34.984375 0 34.796875 0 L 27.046875 0 C 26.773438 0 26.601562 -0.113281 26.53125 -0.34375 L 17.65625 -25.40625 L 8.875 -0.34375 C 8.84375 -0.113281 8.660156 0 8.328125 0 L 0.625 0 C 0.351562 0 0.171875 -0.0703125 0.078125 -0.21875 C -0.015625 -0.375 -0.0195312 -0.523438 0.0625 -0.671875 L 17.09375 -44.640625 C 17.164062 -44.859375 17.351562 -44.96875 17.65625 -44.96875 C 17.957031 -44.96875 18.144531 -44.859375 18.21875 -44.640625 Z M 35.3125 -0.671875 "/></g></g></g></svg>