<svg xmlns="http://www.w3.org/2000/svg" xmlns:xlink="http://www.w3.org/1999/xlink" width="1584" zoomAndPan="magnify" viewBox="0 0 1188 296.999993" height="396" preserveAspectRatio="xMidYMid meet" version="1.0"><defs><g/></defs><g fill="#000000" fill-opacity="1"><g transform="translate(4.335951, 231.816059)"><g><path d="M 28.125 -83.28125 L 0 -83.28125 L 0 -145.40625 C 0 -146.507812 0.671875 -147.0625 2.015625 -147.0625 L 26.109375 -147.0625 C 27.453125 -147.0625 28.125 -146.507812 28.125 -145.40625 Z M 109.921875 -147.0625 C 111.273438 -147.0625 111.953125 -146.507812 111.953125 -145.40625 L 111.953125 -1.65625 C 111.953125 -0.550781 111.273438 0 109.921875 0 L 85.84375 0 C 84.5 0 83.828125 -0.550781 83.828125 -1.65625 L 83.828125 -27.578125 L 28.125 -27.578125 L 28.125 -1.65625 C 28.125 -0.550781 27.453125 0 26.109375 0 L 2.015625 0 C 0.671875 0 0 -0.550781 0 -1.65625 L 0 -55.140625 L 28.125 -55.140625 L 28.125 -54.96875 L 83.828125 -54.96875 L 83.828125 -145.40625 C 83.828125 -146.507812 84.5 -147.0625 85.84375 -147.0625 Z M 109.921875 -147.0625 "/></g></g></g><g fill="#000000" fill-opacity="1"><g transform="translate(121.988417, 231.816059)"><g><path d="M 84.5625 -73.15625 C 84.5625 -69.363281 83.242188 -66.117188 80.609375 -63.421875 C 77.972656 -60.722656 74.695312 -59.375 70.78125 -59.375 C 66.976562 -59.375 63.726562 -60.722656 61.03125 -63.421875 C 58.332031 -66.117188 56.984375 -69.363281 56.984375 -73.15625 C 56.984375 -77.082031 58.332031 -80.394531 61.03125 -83.09375 C 63.726562 -85.789062 66.976562 -87.140625 70.78125 -87.140625 C 74.695312 -87.140625 77.972656 -85.789062 80.609375 -83.09375 C 83.242188 -80.394531 84.5625 -77.082031 84.5625 -73.15625 Z M 141.546875 -73.71875 C 141.546875 -64.519531 140.070312 -55.539062 137.125 -46.78125 C 134.1875 -38.019531 129.773438 -30.113281 123.890625 -23.0625 C 118.015625 -16.019531 110.664062 -10.414062 101.84375 -6.25 C 93.019531 -2.082031 82.722656 0 70.953125 0 C 59.066406 0 48.679688 -2.082031 39.796875 -6.25 C 30.910156 -10.414062 23.523438 -16.019531 17.640625 -23.0625 C 11.765625 -30.113281 7.351562 -38.019531 4.40625 -46.78125 C 1.46875 -55.539062 0 -64.519531 0 -73.71875 C 0 -82.90625 1.46875 -91.847656 4.40625 -100.546875 C 7.351562 -109.253906 11.765625 -117.097656 17.640625 -124.078125 C 23.523438 -131.066406 30.910156 -136.644531 39.796875 -140.8125 C 48.679688 -144.976562 59.066406 -147.0625 70.953125 -147.0625 C 82.722656 -147.0625 93.019531 -144.976562 101.84375 -140.8125 C 110.664062 -136.644531 118.015625 -131.066406 123.890625 -124.078125 C 129.773438 -117.097656 134.1875 -109.253906 137.125 -100.546875 C 140.070312 -91.847656 141.546875 -82.90625 141.546875 -73.71875 Z M 113.96875 -73.15625 C 113.96875 -79.164062 113.046875 -85.019531 111.203125 -90.71875 C 109.367188 -96.414062 106.675781 -101.5625 103.125 -106.15625 C 99.570312 -110.75 95.097656 -114.394531 89.703125 -117.09375 C 84.316406 -119.789062 78.066406 -121.140625 70.953125 -121.140625 C 63.722656 -121.140625 57.410156 -119.789062 52.015625 -117.09375 C 46.628906 -114.394531 42.128906 -110.75 38.515625 -106.15625 C 34.898438 -101.5625 32.203125 -96.414062 30.421875 -90.71875 C 28.648438 -85.019531 27.765625 -79.164062 27.765625 -73.15625 C 27.765625 -67.28125 28.648438 -61.519531 30.421875 -55.875 C 32.203125 -50.238281 34.898438 -45.15625 38.515625 -40.625 C 42.128906 -36.09375 46.628906 -32.476562 52.015625 -29.78125 C 57.410156 -27.082031 63.722656 -25.734375 70.953125 -25.734375 C 78.066406 -25.734375 84.316406 -27.082031 89.703125 -29.78125 C 95.097656 -32.476562 99.570312 -36.09375 103.125 -40.625 C 106.675781 -45.15625 109.367188 -50.238281 111.203125 -55.875 C 113.046875 -61.519531 113.96875 -67.28125 113.96875 -73.15625 Z M 113.96875 -73.15625 "/></g></g></g><g fill="#000000" fill-opacity="1"><g transform="translate(270.52464, 231.816059)"><g><path d="M 108.453125 -147.0625 C 109.679688 -147.0625 110.296875 -146.507812 110.296875 -145.40625 L 110.296875 -49.078125 C 110.296875 -38.785156 107.875 -29.960938 103.03125 -22.609375 C 98.195312 -15.253906 91.613281 -9.644531 83.28125 -5.78125 C 74.945312 -1.925781 65.566406 0 55.140625 0 C 45.097656 0 35.878906 -1.988281 27.484375 -5.96875 C 19.085938 -9.957031 12.40625 -15.628906 7.4375 -22.984375 C 2.476562 -30.335938 0 -39.035156 0 -49.078125 L 0 -120.40625 L 27.765625 -120.40625 L 27.765625 -49.265625 C 28.617188 -42.035156 31.707031 -36.519531 37.03125 -32.71875 C 42.363281 -28.914062 48.398438 -27.015625 55.140625 -27.015625 C 59.804688 -27.015625 64.222656 -27.8125 68.390625 -29.40625 C 72.554688 -31 75.953125 -33.453125 78.578125 -36.765625 C 81.210938 -40.078125 82.53125 -44.179688 82.53125 -49.078125 L 82.53125 -145.40625 C 82.53125 -146.507812 83.207031 -147.0625 84.5625 -147.0625 Z M 108.453125 -147.0625 "/></g></g></g><g fill="#000000" fill-opacity="1"><g transform="translate(386.338796, 231.816059)"><g><path d="M 67.46875 -81.625 C 75.1875 -78.0625 81.097656 -72.878906 85.203125 -66.078125 C 89.304688 -59.285156 91.359375 -51.535156 91.359375 -42.828125 C 91.359375 -33.640625 89.179688 -25.859375 84.828125 -19.484375 C 80.484375 -13.109375 74.847656 -8.265625 67.921875 -4.953125 C 60.992188 -1.648438 53.609375 0 45.765625 0 C 45.765625 0 45.707031 0 45.59375 0 L 45.59375 -26.46875 C 45.707031 -26.46875 45.765625 -26.46875 45.765625 -26.46875 C 50.671875 -26.46875 54.960938 -27.96875 58.640625 -30.96875 C 62.316406 -33.976562 64.15625 -37.929688 64.15625 -42.828125 C 64.15625 -46.503906 63.203125 -49.628906 61.296875 -52.203125 C 59.398438 -54.773438 57.039062 -56.796875 54.21875 -58.265625 C 51.40625 -59.742188 48.585938 -60.539062 45.765625 -60.65625 C 45.160156 -60.65625 42.710938 -60.867188 38.421875 -61.296875 C 34.128906 -61.734375 29.285156 -63.175781 23.890625 -65.625 C 16.296875 -69.175781 10.414062 -74.109375 6.25 -80.421875 C 2.082031 -86.734375 0 -94.179688 0 -102.765625 C 0 -111.953125 2.171875 -119.851562 6.515625 -126.46875 C 10.867188 -133.09375 16.539062 -138.179688 23.53125 -141.734375 C 30.519531 -145.285156 37.929688 -147.0625 45.765625 -147.0625 C 54.222656 -147.0625 61.820312 -145.3125 68.5625 -141.8125 C 75.300781 -138.320312 80.660156 -133.421875 84.640625 -127.109375 C 88.628906 -120.804688 90.6875 -113.488281 90.8125 -105.15625 C 90.9375 -104.90625 90.78125 -104.59375 90.34375 -104.21875 C 89.914062 -103.851562 89.394531 -103.671875 88.78125 -103.671875 L 65.8125 -103.671875 C 65.320312 -103.671875 64.859375 -103.851562 64.421875 -104.21875 C 63.992188 -104.59375 63.78125 -104.90625 63.78125 -105.15625 C 63.664062 -110.414062 61.828125 -114.300781 58.265625 -116.8125 C 54.710938 -119.332031 50.546875 -120.59375 45.765625 -120.59375 C 40.742188 -120.59375 36.425781 -119.085938 32.8125 -116.078125 C 29.195312 -113.078125 27.390625 -108.640625 27.390625 -102.765625 C 27.390625 -97.492188 29.285156 -93.476562 33.078125 -90.71875 C 36.878906 -87.957031 41.109375 -86.578125 45.765625 -86.578125 C 46.140625 -86.578125 47.367188 -86.515625 49.453125 -86.390625 C 51.535156 -86.273438 54.195312 -85.878906 57.4375 -85.203125 C 60.6875 -84.523438 64.03125 -83.332031 67.46875 -81.625 Z M 67.46875 -81.625 "/></g></g></g><g fill="#000000" fill-opacity="1"><g transform="translate(482.299102, 231.816059)"><g><path d="M 69.859375 -27.390625 L 69.859375 0 L 2.015625 0 C 0.671875 0 0 -0.550781 0 -1.65625 L 0 -145.40625 C 0 -146.507812 0.671875 -147.0625 2.015625 -147.0625 L 69.859375 -147.0625 L 69.859375 -120.40625 L 28.125 -120.40625 L 28.125 -87.140625 L 85.84375 -87.140625 C 87.195312 -87.140625 87.875 -86.585938 87.875 -85.484375 L 87.875 -62.140625 C 87.875 -61.035156 87.195312 -60.484375 85.84375 -60.484375 L 28.125 -60.484375 L 28.125 -27.390625 Z M 69.859375 -27.390625 "/></g></g></g><g fill="#000000" fill-opacity="1"><g transform="translate(574.582741, 231.816059)"><g/></g></g><g fill="#000000" fill-opacity="1"><g transform="translate(620.540746, 231.816059)"><g><path d="M 115.4375 -2.203125 C 115.6875 -1.710938 115.625 -1.222656 115.25 -0.734375 C 114.882812 -0.242188 114.398438 0 113.796875 0 L 88.421875 0 C 87.566406 0 87.015625 -0.367188 86.765625 -1.109375 L 57.71875 -83.09375 L 29.046875 -1.109375 C 28.921875 -0.367188 28.304688 0 27.203125 0 L 2.015625 0 C 1.160156 0 0.578125 -0.242188 0.265625 -0.734375 C -0.0351562 -1.222656 -0.0625 -1.710938 0.1875 -2.203125 L 55.890625 -145.953125 C 56.128906 -146.691406 56.738281 -147.0625 57.71875 -147.0625 C 58.695312 -147.0625 59.3125 -146.691406 59.5625 -145.953125 Z M 115.4375 -2.203125 "/></g></g></g><g fill="#000000" fill-opacity="1"><g transform="translate(741.869855, 231.816059)"><g><path d="M 100.375 -2.390625 C 100.613281 -1.773438 100.578125 -1.222656 100.265625 -0.734375 C 99.960938 -0.242188 99.445312 0 98.71875 0 L 72.421875 0 C 71.441406 0 70.832031 -0.367188 70.59375 -1.109375 L 43.75 -59.375 L 27.9375 -59.375 L 27.9375 -1.65625 C 27.9375 -0.550781 27.265625 0 25.921875 0 L 1.84375 0 C 0.613281 0 0 -0.550781 0 -1.65625 L 0 -86.40625 L 49.453125 -86.40625 C 50.921875 -86.40625 52.878906 -86.523438 55.328125 -86.765625 C 57.785156 -87.015625 60.207031 -87.6875 62.59375 -88.78125 C 64.976562 -89.882812 67 -91.570312 68.65625 -93.84375 C 70.3125 -96.113281 71.140625 -99.269531 71.140625 -103.3125 C 71.140625 -107.351562 70.25 -110.535156 68.46875 -112.859375 C 66.695312 -115.191406 64.523438 -116.878906 61.953125 -117.921875 C 59.378906 -118.960938 56.925781 -119.632812 54.59375 -119.9375 C 52.269531 -120.25 50.554688 -120.40625 49.453125 -120.40625 L 0 -120.40625 L 0 -145.40625 C 0 -146.507812 0.613281 -147.0625 1.84375 -147.0625 L 49.453125 -147.0625 C 51.160156 -147.0625 53.914062 -146.90625 57.71875 -146.59375 C 61.519531 -146.289062 65.78125 -145.460938 70.5 -144.109375 C 75.21875 -142.765625 79.75 -140.5625 84.09375 -137.5 C 88.445312 -134.4375 92.03125 -130.144531 94.84375 -124.625 C 97.664062 -119.113281 99.078125 -112.007812 99.078125 -103.3125 C 99.078125 -95.832031 97.851562 -89.488281 95.40625 -84.28125 C 92.957031 -79.070312 89.675781 -74.8125 85.5625 -71.5 C 81.457031 -68.195312 76.957031 -65.625 72.0625 -63.78125 C 76.71875 -53.363281 81.460938 -43.066406 86.296875 -32.890625 C 91.140625 -22.722656 95.832031 -12.554688 100.375 -2.390625 Z M 100.375 -2.390625 "/></g></g></g><g fill="#000000" fill-opacity="1"><g transform="translate(847.573202, 231.816059)"><g><path d="M 69.859375 -27.390625 L 69.859375 0 L 2.015625 0 C 0.671875 0 0 -0.550781 0 -1.65625 L 0 -145.40625 C 0 -146.507812 0.671875 -147.0625 2.015625 -147.0625 L 69.859375 -147.0625 L 69.859375 -120.40625 L 28.125 -120.40625 L 28.125 -87.140625 L 85.84375 -87.140625 C 87.195312 -87.140625 87.875 -86.585938 87.875 -85.484375 L 87.875 -62.140625 C 87.875 -61.035156 87.195312 -60.484375 85.84375 -60.484375 L 28.125 -60.484375 L 28.125 -27.390625 Z M 69.859375 -27.390625 "/></g></g></g><g fill="#000000" fill-opacity="1"><g transform="translate(939.856888, 231.816059)"><g><path d="M 121.6875 -147.0625 C 123.039062 -147.0625 123.71875 -146.507812 123.71875 -145.40625 L 123.71875 -1.65625 C 123.71875 -0.550781 123.039062 0 121.6875 0 L 97.421875 0 C 97.304688 0 97.03125 -0.0625 96.59375 -0.1875 C 96.164062 -0.3125 95.894531 -0.429688 95.78125 -0.546875 L 28.125 -97.421875 L 28.125 -35.296875 L 0 -35.296875 L 0 -145.40625 C 0 -146.507812 0.613281 -147.0625 1.84375 -147.0625 L 26.28125 -147.0625 C 26.53125 -147.0625 26.835938 -147.03125 27.203125 -146.96875 C 27.578125 -146.90625 27.820312 -146.753906 27.9375 -146.515625 L 95.78125 -49.640625 L 95.78125 -145.40625 C 95.78125 -146.507812 96.515625 -147.0625 97.984375 -147.0625 Z M 121.6875 -147.0625 "/></g></g></g><g fill="#000000" fill-opacity="1"><g transform="translate(1069.826059, 231.816059)"><g><path d="M 115.4375 -2.203125 C 115.6875 -1.710938 115.625 -1.222656 115.25 -0.734375 C 114.882812 -0.242188 114.398438 0 113.796875 0 L 88.421875 0 C 87.566406 0 87.015625 -0.367188 86.765625 -1.109375 L 57.71875 -83.09375 L 29.046875 -1.109375 C 28.921875 -0.367188 28.304688 0 27.203125 0 L 2.015625 0 C 1.160156 0 0.578125 -0.242188 0.265625 -0.734375 C -0.0351562 -1.222656 -0.0625 -1.710938 0.1875 -2.203125 L 55.890625 -145.953125 C 56.128906 -146.691406 56.738281 -147.0625 57.71875 -147.0625 C 58.695312 -147.0625 59.3125 -146.691406 59.5625 -145.953125 Z M 115.4375 -2.203125 "/></g></g></g></svg>