<svg xmlns="http://www.w3.org/2000/svg" xmlns:xlink="http://www.w3.org/1999/xlink" width="500" zoomAndPan="magnify" viewBox="0 0 375 374.999991" height="500" preserveAspectRatio="xMidYMid meet" version="1.0"><defs><g/></defs><g fill="#ffffff" fill-opacity="1"><g transform="translate(2.566411, 168.616424)"><g><path d="M 18.390625 -54.453125 L 0 -54.453125 L 0 -95.078125 C 0 -95.796875 0.441406 -96.15625 1.328125 -96.15625 L 17.0625 -96.15625 C 17.945312 -96.15625 18.390625 -95.796875 18.390625 -95.078125 Z M 71.875 -96.15625 C 72.757812 -96.15625 73.203125 -95.796875 73.203125 -95.078125 L 73.203125 -1.078125 C 73.203125 -0.359375 72.757812 0 71.875 0 L 56.140625 0 C 55.253906 0 54.8125 -0.359375 54.8125 -1.078125 L 54.8125 -18.03125 L 18.390625 -18.03125 L 18.390625 -1.078125 C 18.390625 -0.359375 17.945312 0 17.0625 0 L 1.328125 0 C 0.441406 0 0 -0.359375 0 -1.078125 L 0 -36.0625 L 18.390625 -36.0625 L 18.390625 -35.9375 L 54.8125 -35.9375 L 54.8125 -95.078125 C 54.8125 -95.796875 55.253906 -96.15625 56.140625 -96.15625 Z M 71.875 -96.15625 "/></g></g></g><g fill="#ffffff" fill-opacity="1"><g transform="translate(79.493934, 168.616424)"><g><path d="M 55.296875 -47.84375 C 55.296875 -45.351562 54.429688 -43.226562 52.703125 -41.46875 C 50.984375 -39.707031 48.84375 -38.828125 46.28125 -38.828125 C 43.789062 -38.828125 41.664062 -39.707031 39.90625 -41.46875 C 38.144531 -43.226562 37.265625 -45.351562 37.265625 -47.84375 C 37.265625 -50.40625 38.144531 -52.566406 39.90625 -54.328125 C 41.664062 -56.085938 43.789062 -56.96875 46.28125 -56.96875 C 48.84375 -56.96875 50.984375 -56.085938 52.703125 -54.328125 C 54.429688 -52.566406 55.296875 -50.40625 55.296875 -47.84375 Z M 92.5625 -48.203125 C 92.5625 -42.191406 91.597656 -36.320312 89.671875 -30.59375 C 87.742188 -24.863281 84.859375 -19.691406 81.015625 -15.078125 C 77.171875 -10.472656 72.363281 -6.804688 66.59375 -4.078125 C 60.820312 -1.359375 54.085938 0 46.390625 0 C 38.617188 0 31.828125 -1.359375 26.015625 -4.078125 C 20.210938 -6.804688 15.382812 -10.472656 11.53125 -15.078125 C 7.6875 -19.691406 4.800781 -24.863281 2.875 -30.59375 C 0.957031 -36.320312 0 -42.191406 0 -48.203125 C 0 -54.210938 0.957031 -60.0625 2.875 -65.75 C 4.800781 -71.4375 7.6875 -76.5625 11.53125 -81.125 C 15.382812 -85.695312 20.210938 -89.34375 26.015625 -92.0625 C 31.828125 -94.789062 38.617188 -96.15625 46.390625 -96.15625 C 54.085938 -96.15625 60.820312 -94.789062 66.59375 -92.0625 C 72.363281 -89.34375 77.171875 -85.695312 81.015625 -81.125 C 84.859375 -76.5625 87.742188 -71.4375 89.671875 -65.75 C 91.597656 -60.0625 92.5625 -54.210938 92.5625 -48.203125 Z M 74.53125 -47.84375 C 74.53125 -51.769531 73.925781 -55.59375 72.71875 -59.3125 C 71.519531 -63.039062 69.757812 -66.40625 67.4375 -69.40625 C 65.113281 -72.414062 62.1875 -74.800781 58.65625 -76.5625 C 55.132812 -78.332031 51.046875 -79.21875 46.390625 -79.21875 C 41.671875 -79.21875 37.546875 -78.332031 34.015625 -76.5625 C 30.492188 -74.800781 27.550781 -72.414062 25.1875 -69.40625 C 22.820312 -66.40625 21.054688 -63.039062 19.890625 -59.3125 C 18.734375 -55.59375 18.15625 -51.769531 18.15625 -47.84375 C 18.15625 -44 18.734375 -40.234375 19.890625 -36.546875 C 21.054688 -32.859375 22.820312 -29.53125 25.1875 -26.5625 C 27.550781 -23.601562 30.492188 -21.238281 34.015625 -19.46875 C 37.546875 -17.707031 41.671875 -16.828125 46.390625 -16.828125 C 51.046875 -16.828125 55.132812 -17.707031 58.65625 -19.46875 C 62.1875 -21.238281 65.113281 -23.601562 67.4375 -26.5625 C 69.757812 -29.53125 71.519531 -32.859375 72.71875 -36.546875 C 73.925781 -40.234375 74.53125 -44 74.53125 -47.84375 Z M 74.53125 -47.84375 "/></g></g></g><g fill="#ffffff" fill-opacity="1"><g transform="translate(176.614934, 168.616424)"><g><path d="M 70.921875 -96.15625 C 71.722656 -96.15625 72.125 -95.796875 72.125 -95.078125 L 72.125 -32.09375 C 72.125 -25.363281 70.539062 -19.59375 67.375 -14.78125 C 64.207031 -9.976562 59.898438 -6.3125 54.453125 -3.78125 C 49.003906 -1.257812 42.875 0 36.0625 0 C 29.488281 0 23.457031 -1.300781 17.96875 -3.90625 C 12.476562 -6.507812 8.109375 -10.210938 4.859375 -15.015625 C 1.617188 -19.828125 0 -25.519531 0 -32.09375 L 0 -78.734375 L 18.15625 -78.734375 L 18.15625 -32.21875 C 18.707031 -27.488281 20.726562 -23.878906 24.21875 -21.390625 C 27.707031 -18.910156 31.65625 -17.671875 36.0625 -17.671875 C 39.101562 -17.671875 41.984375 -18.191406 44.703125 -19.234375 C 47.429688 -20.273438 49.65625 -21.875 51.375 -24.03125 C 53.101562 -26.195312 53.96875 -28.882812 53.96875 -32.09375 L 53.96875 -95.078125 C 53.96875 -95.796875 54.410156 -96.15625 55.296875 -96.15625 Z M 70.921875 -96.15625 "/></g></g></g><g fill="#ffffff" fill-opacity="1"><g transform="translate(252.340473, 168.616424)"><g><path d="M 44.109375 -53.375 C 49.160156 -51.050781 53.023438 -47.664062 55.703125 -43.21875 C 58.390625 -38.769531 59.734375 -33.695312 59.734375 -28 C 59.734375 -21.988281 58.3125 -16.898438 55.46875 -12.734375 C 52.625 -8.566406 48.9375 -5.398438 44.40625 -3.234375 C 39.882812 -1.078125 35.0625 0 29.9375 0 C 29.9375 0 29.894531 0 29.8125 0 L 29.8125 -17.3125 C 29.894531 -17.3125 29.9375 -17.3125 29.9375 -17.3125 C 33.132812 -17.3125 35.9375 -18.289062 38.34375 -20.25 C 40.75 -22.21875 41.953125 -24.800781 41.953125 -28 C 41.953125 -30.40625 41.328125 -32.445312 40.078125 -34.125 C 38.835938 -35.8125 37.296875 -37.132812 35.453125 -38.09375 C 33.609375 -39.0625 31.769531 -39.585938 29.9375 -39.671875 C 29.53125 -39.671875 27.925781 -39.8125 25.125 -40.09375 C 22.320312 -40.375 19.15625 -41.3125 15.625 -42.90625 C 10.65625 -45.226562 6.804688 -48.453125 4.078125 -52.578125 C 1.359375 -56.710938 0 -61.582031 0 -67.1875 C 0 -73.195312 1.421875 -78.363281 4.265625 -82.6875 C 7.109375 -87.019531 10.8125 -90.347656 15.375 -92.671875 C 19.945312 -94.992188 24.800781 -96.15625 29.9375 -96.15625 C 35.457031 -96.15625 40.421875 -95.015625 44.828125 -92.734375 C 49.242188 -90.453125 52.753906 -87.25 55.359375 -83.125 C 57.960938 -79 59.300781 -74.207031 59.375 -68.75 C 59.457031 -68.59375 59.359375 -68.394531 59.078125 -68.15625 C 58.796875 -67.914062 58.457031 -67.796875 58.0625 -67.796875 L 43.03125 -67.796875 C 42.707031 -67.796875 42.40625 -67.914062 42.125 -68.15625 C 41.84375 -68.394531 41.703125 -68.59375 41.703125 -68.75 C 41.628906 -72.195312 40.429688 -74.742188 38.109375 -76.390625 C 35.785156 -78.035156 33.0625 -78.859375 29.9375 -78.859375 C 26.644531 -78.859375 23.816406 -77.875 21.453125 -75.90625 C 19.085938 -73.945312 17.90625 -71.039062 17.90625 -67.1875 C 17.90625 -63.75 19.144531 -61.125 21.625 -59.3125 C 24.113281 -57.507812 26.882812 -56.609375 29.9375 -56.609375 C 30.175781 -56.609375 30.972656 -56.566406 32.328125 -56.484375 C 33.691406 -56.410156 35.4375 -56.148438 37.5625 -55.703125 C 39.6875 -55.265625 41.867188 -54.488281 44.109375 -53.375 Z M 44.109375 -53.375 "/></g></g></g><g fill="#ffffff" fill-opacity="1"><g transform="translate(315.084487, 168.616424)"><g><path d="M 45.671875 -17.90625 L 45.671875 0 L 1.328125 0 C 0.441406 0 0 -0.359375 0 -1.078125 L 0 -95.078125 C 0 -95.796875 0.441406 -96.15625 1.328125 -96.15625 L 45.671875 -96.15625 L 45.671875 -78.734375 L 18.390625 -78.734375 L 18.390625 -56.96875 L 56.140625 -56.96875 C 57.015625 -56.96875 57.453125 -56.609375 57.453125 -55.890625 L 57.453125 -40.625 C 57.453125 -39.90625 57.015625 -39.546875 56.140625 -39.546875 L 18.390625 -39.546875 L 18.390625 -17.90625 Z M 45.671875 -17.90625 "/></g></g></g><g fill="#ffffff" fill-opacity="1"><g transform="translate(2.449223, 293.116416)"><g><path d="M 75.484375 -1.4375 C 75.648438 -1.125 75.609375 -0.804688 75.359375 -0.484375 C 75.117188 -0.160156 74.800781 0 74.40625 0 L 57.8125 0 C 57.25 0 56.890625 -0.238281 56.734375 -0.71875 L 37.75 -54.328125 L 18.984375 -0.71875 C 18.910156 -0.238281 18.515625 0 17.796875 0 L 1.328125 0 C 0.765625 0 0.378906 -0.160156 0.171875 -0.484375 C -0.0234375 -0.804688 -0.0390625 -1.125 0.125 -1.4375 L 36.546875 -95.4375 C 36.703125 -95.914062 37.097656 -96.15625 37.734375 -96.15625 C 38.378906 -96.15625 38.785156 -95.914062 38.953125 -95.4375 Z M 75.484375 -1.4375 "/></g></g></g><g fill="#ffffff" fill-opacity="1"><g transform="translate(81.780727, 293.116416)"><g><path d="M 65.625 -1.5625 C 65.789062 -1.164062 65.769531 -0.804688 65.5625 -0.484375 C 65.363281 -0.160156 65.023438 0 64.546875 0 L 47.359375 0 C 46.710938 0 46.3125 -0.238281 46.15625 -0.71875 L 28.609375 -38.828125 L 18.265625 -38.828125 L 18.265625 -1.078125 C 18.265625 -0.359375 17.828125 0 16.953125 0 L 1.203125 0 C 0.398438 0 0 -0.359375 0 -1.078125 L 0 -56.5 L 32.328125 -56.5 C 33.296875 -56.5 34.578125 -56.578125 36.171875 -56.734375 C 37.773438 -56.890625 39.359375 -57.328125 40.921875 -58.046875 C 42.484375 -58.773438 43.804688 -59.878906 44.890625 -61.359375 C 45.972656 -62.847656 46.515625 -64.910156 46.515625 -67.546875 C 46.515625 -70.191406 45.929688 -72.273438 44.765625 -73.796875 C 43.609375 -75.328125 42.1875 -76.429688 40.5 -77.109375 C 38.820312 -77.785156 37.222656 -78.222656 35.703125 -78.421875 C 34.179688 -78.628906 33.054688 -78.734375 32.328125 -78.734375 L 0 -78.734375 L 0 -95.078125 C 0 -95.796875 0.398438 -96.15625 1.203125 -96.15625 L 32.328125 -96.15625 C 33.453125 -96.15625 35.253906 -96.054688 37.734375 -95.859375 C 40.222656 -95.660156 43.007812 -95.117188 46.09375 -94.234375 C 49.175781 -93.359375 52.140625 -91.914062 54.984375 -89.90625 C 57.835938 -87.90625 60.1875 -85.101562 62.03125 -81.5 C 63.875 -77.894531 64.796875 -73.242188 64.796875 -67.546875 C 64.796875 -62.660156 63.992188 -58.515625 62.390625 -55.109375 C 60.785156 -51.703125 58.640625 -48.914062 55.953125 -46.75 C 53.265625 -44.59375 50.320312 -42.910156 47.125 -41.703125 C 50.164062 -34.898438 53.269531 -28.171875 56.4375 -21.515625 C 59.601562 -14.867188 62.664062 -8.21875 65.625 -1.5625 Z M 65.625 -1.5625 "/></g></g></g><g fill="#ffffff" fill-opacity="1"><g transform="translate(150.8953, 293.116416)"><g><path d="M 45.671875 -17.90625 L 45.671875 0 L 1.328125 0 C 0.441406 0 0 -0.359375 0 -1.078125 L 0 -95.078125 C 0 -95.796875 0.441406 -96.15625 1.328125 -96.15625 L 45.671875 -96.15625 L 45.671875 -78.734375 L 18.390625 -78.734375 L 18.390625 -56.96875 L 56.140625 -56.96875 C 57.015625 -56.96875 57.453125 -56.609375 57.453125 -55.890625 L 57.453125 -40.625 C 57.453125 -39.90625 57.015625 -39.546875 56.140625 -39.546875 L 18.390625 -39.546875 L 18.390625 -17.90625 Z M 45.671875 -17.90625 "/></g></g></g><g fill="#ffffff" fill-opacity="1"><g transform="translate(211.235312, 293.116416)"><g><path d="M 79.578125 -96.15625 C 80.453125 -96.15625 80.890625 -95.796875 80.890625 -95.078125 L 80.890625 -1.078125 C 80.890625 -0.359375 80.453125 0 79.578125 0 L 63.703125 0 C 63.628906 0 63.453125 -0.0351562 63.171875 -0.109375 C 62.890625 -0.191406 62.707031 -0.273438 62.625 -0.359375 L 18.390625 -63.703125 L 18.390625 -23.078125 L 0 -23.078125 L 0 -95.078125 C 0 -95.796875 0.398438 -96.15625 1.203125 -96.15625 L 17.1875 -96.15625 C 17.34375 -96.15625 17.539062 -96.132812 17.78125 -96.09375 C 18.03125 -96.0625 18.191406 -95.960938 18.265625 -95.796875 L 62.625 -32.453125 L 62.625 -95.078125 C 62.625 -95.796875 63.101562 -96.15625 64.0625 -96.15625 Z M 79.578125 -96.15625 "/></g></g></g><g fill="#ffffff" fill-opacity="1"><g transform="translate(296.216202, 293.116416)"><g><path d="M 75.484375 -1.4375 C 75.648438 -1.125 75.609375 -0.804688 75.359375 -0.484375 C 75.117188 -0.160156 74.800781 0 74.40625 0 L 57.8125 0 C 57.25 0 56.890625 -0.238281 56.734375 -0.71875 L 37.75 -54.328125 L 18.984375 -0.71875 C 18.910156 -0.238281 18.515625 0 17.796875 0 L 1.328125 0 C 0.765625 0 0.378906 -0.160156 0.171875 -0.484375 C -0.0234375 -0.804688 -0.0390625 -1.125 0.125 -1.4375 L 36.546875 -95.4375 C 36.703125 -95.914062 37.097656 -96.15625 37.734375 -96.15625 C 38.378906 -96.15625 38.785156 -95.914062 38.953125 -95.4375 Z M 75.484375 -1.4375 "/></g></g></g></svg>